<?xml version="1.0" encoding="UTF-8" standalone="no"?>
<svg
   xmlns:dc="http://purl.org/dc/elements/1.1/"
   xmlns:cc="http://creativecommons.org/ns#"
   xmlns:rdf="http://www.w3.org/1999/02/22-rdf-syntax-ns#"
   xmlns:svg="http://www.w3.org/2000/svg"
   xmlns="http://www.w3.org/2000/svg"
   xmlns:sodipodi="http://sodipodi.sourceforge.net/DTD/sodipodi-0.dtd"
   xmlns:inkscape="http://www.inkscape.org/namespaces/inkscape"
   version="1.1"
   width="190"
   height="142"
   id="svg3471"
   inkscape:version="0.91 r13725"
   sodipodi:docname="sikr_logo2.svg">
  <metadata
     id="metadata3507">
    <rdf:RDF>
      <cc:Work
         rdf:about="">
        <dc:format>image/svg+xml</dc:format>
        <dc:type
           rdf:resource="http://purl.org/dc/dcmitype/StillImage" />
        <dc:title></dc:title>
      </cc:Work>
    </rdf:RDF>
  </metadata>
  <sodipodi:namedview
     pagecolor="#ffffff"
     bordercolor="#666666"
     borderopacity="1"
     objecttolerance="10"
     gridtolerance="10"
     guidetolerance="10"
     inkscape:pageopacity="0"
     inkscape:pageshadow="2"
     inkscape:window-width="1920"
     inkscape:window-height="1147"
     id="namedview3505"
     showgrid="false"
     showguides="true"
     inkscape:guide-bbox="true"
     inkscape:zoom="5.6568543"
     inkscape:cx="87.277798"
     inkscape:cy="88.478327"
     inkscape:window-x="0"
     inkscape:window-y="22"
     inkscape:window-maximized="1"
     inkscape:current-layer="svg3471">
    <sodipodi:guide
       position="57.144531,44.214844"
       orientation="1,0"
       id="guide3523" />
    <sodipodi:guide
       position="132.85156,49.570313"
       orientation="1,0"
       id="guide3525" />
    <sodipodi:guide
       position="122.50625,42.647378"
       orientation="0,1"
       id="guide3527" />
    <sodipodi:guide
       position="94.9905,93.406"
       orientation="1,0"
       id="guide3529"
       inkscape:label=""
       inkscape:color="rgb(0,0,255)" />
    <sodipodi:guide
       position="105.00536,130.4612"
       orientation="0,1"
       id="guide3531" />
  </sodipodi:namedview>
  <g
     style="fill:#6eac97"
     width="100px"
     height="100px"
     id="g3477"
     transform="matrix(2.2692601,0,0,2.2692601,57.564601,6.7299364)"
     inkscape:export-xdpi="1049.6075"
     inkscape:export-ydpi="1049.6075">
    <path
       d="m 50.5,94.5 c 0,0 -37.333,-13.034 -37.333,-36 0,-24.68 0,-38.667 0,-38.667 L 50.5,6.5 87.833,19.833 c 0,0 0,13.987 0,38.667 0,22.966 -37.333,36 -37.333,36 z m 32,-70.02 -32,-11.314 -32,11.314 c 0,0 0,11.867 0,32.808 0,19.486 32,30.545 32,30.545 0,0 32,-11.059 32,-30.545 0,-20.94 0,-32.808 0,-32.808 z m -32,59.353 c 0,0 -28,-9.873 -28,-27.271 0,-18.698 0,-29.293 0,-29.293 l 28,-10.102 28,10.102 c 0,0 0,10.595 0,29.293 0,17.398 -28,27.271 -28,27.271 z"
       transform="scale(0.3266,0.3266)"
       id="path3479"
       inkscape:connector-curvature="0"
       style="clip-rule:evenodd;fill-rule:evenodd" />
  </g>
  <g
     style="fill:#6eac97"
     width="13.656114959716799"
     height="12.645954055786133"
     transform="matrix(2.2692601,0,0,2.2692601,79.14156,27.699947)"
     id="g3481"
     inkscape:export-xdpi="1049.6075"
     inkscape:export-ydpi="1049.6075">
    <g
       transform="translate(1.9895299,12.377628)"
       id="g3483"
       style="fill:#ffffff">
      <path
         d="m 31,121 q 6,68 42,135.5 36,67.5 85,110.5 219,-133 415,-134 86,0 126,39 40,39 40,97 0,96 -129,151 L 369,623 q -141,63 -217,152 -76,89 -76,226 0,94 38,172 38,78 106.5,135.5 68.5,57.5 162.5,89.5 94,32 209,32 229,0 463,-117 -10,-158 -111,-246 -209,100 -369,100 -82,0 -122.5,-36.5 Q 412,1094 412,1047 412,967 532,918 L 778,813 Q 934,747 1010.5,645 1087,543 1087,408 1087,312 1052.5,232 1018,152 949.5,93.5 881,35 778.5,2 676,-31 539,-31 273,-31 31,121 Z"
         transform="scale(0.00865568,-0.00865568)"
         id="path3485"
         inkscape:connector-curvature="0" />
    </g>
  </g>
  <g
     style="fill:#372b37"
     id="g3487"
     transform="translate(56.80597,99.007298)"
     inkscape:export-xdpi="1049.6075"
     inkscape:export-ydpi="1049.6075">
    <path
       inkscape:connector-curvature="0"
       id="path3489"
       transform="scale(0.01110615,-0.01110615)"
       d="m 31,121 q 6,68 42,135.5 36,67.5 85,110.5 219,-133 415,-134 86,0 126,39 40,39 40,97 0,96 -129,151 L 369,623 q -141,63 -217,152 -76,89 -76,226 0,94 38,172 38,78 106.5,135.5 68.5,57.5 162.5,89.5 94,32 209,32 229,0 463,-117 -10,-158 -111,-246 -209,100 -369,100 -82,0 -122.5,-36.5 Q 412,1094 412,1047 412,967 532,918 L 778,813 Q 934,747 1010.5,645 1087,543 1087,408 1087,312 1052.5,232 1018,152 949.5,93.5 881,35 778.5,2 676,-31 539,-31 273,-31 31,121 Z" />
    <path
       inkscape:connector-curvature="0"
       id="path3491"
       transform="matrix(0.01110615,0,0,-0.01110615,12.661006,0)"
       d="m 160,0 0,1399 q 63,12 163.5,12 100.5,0 165.5,-12 L 489,0 Q 423,-12 323,-12 223,-12 160,0 Z" />
    <path
       inkscape:connector-curvature="0"
       id="path3493"
       transform="matrix(0.01110615,0,0,-0.01110615,19.868894,0)"
       d="m 156,0 0,1399 q 63,12 163.5,12 100.5,0 163.5,-12 l 0,-541 54,2 q 37,0 53,13.5 16,13.5 39,56.5 l 194,366 q 31,63 66,89 35,26 108,26 82,0 191,-10 l 18,-23 L 956,907 Q 909,813 842,758 938,738 986,680.5 1034,623 1067,526 l 84,-254 q 16,-47 24.5,-69.5 8.5,-22.5 41.5,-75.5 13,-20 40,-47 -70,-98 -217,-98 -84,0 -126,43 -42,43 -72,145 l -78,240 q -31,96 -74,137 -43,41 -117,41 -25,0 -90,-4 L 483,0 Q 420,-12 319.5,-12 219,-12 156,0 Z" />
    <path
       inkscape:connector-curvature="0"
       id="path3495"
       transform="matrix(0.01110615,0,0,-0.01110615,33.984804,0)"
       d="m 156,0 0,1389 14,14 q 178,4 300,6 122,2 192,2 113,0 204.5,-27.5 91.5,-27.5 156,-83 64.5,-55.5 100.5,-139 36,-83.5 36,-194.5 0,-68 -20.5,-128.5 Q 1118,778 1084.5,730 1051,682 1004.5,646 958,610 909,592 1015,553 1067,403 l 61,-174 Q 1163,127 1231,78 1200,37 1138.5,9.5 1077,-18 1004,-18 930,-18 889,24 848,66 813,170 L 739,385 Q 716,446 678.5,479 641,512 565,512 l -84,0 0,-512 Q 415,-12 317,-12 219,-12 156,0 Z m 325,764 q 92,0 158,3 66,3 105.5,24.5 39.5,21.5 60,60.5 20.5,39 20.5,113 0,198 -190,198 l -2,0 -85,0 q 0,0 -67,2 l 0,-401 z" />
    <path
       inkscape:connector-curvature="0"
       id="path3497"
       transform="matrix(0.01110615,0,0,-0.01110615,47.967441,0)"
       d="m 109,139 q -1,72 24,125 35,18 76,27.5 41,9.5 84,9.5 94,0 162,-37 25,-53 24,-125 0,-35 -6,-66.5 Q 467,41 455,16 398,-23 293,-23 191,-23 133,16 121,41 115,72.5 109,104 109,139 Z" />
    <path
       inkscape:connector-curvature="0"
       id="path3499"
       transform="matrix(0.01110615,0,0,-0.01110615,54.486749,0)"
       d="m 160,0 0,1399 q 63,12 163.5,12 100.5,0 165.5,-12 L 489,0 Q 423,-12 323,-12 223,-12 160,0 Z" />
    <path
       inkscape:connector-curvature="0"
       id="path3501"
       transform="matrix(0.01110615,0,0,-0.01110615,61.694637,0)"
       d="m 74,698 q 0,180 42,316.5 42,136.5 120.5,228.5 78.5,92 191.5,139.5 113,47.5 254,47.5 141,0 255,-47.5 114,-47.5 192.5,-140.5 78.5,-93 120.5,-229 42,-136 42,-315 0,-178 -42,-314 Q 1208,248 1129.5,155.5 1051,63 937,16 823,-31 682,-31 449,-31 293,98 74,280 74,698 Z m 342,2 q 0,-94 9,-167.5 9,-73.5 34,-151.5 55,-160 223,-160 84,0 136,42 52,42 82,106.5 30,64.5 40,144.5 10,80 10,158 0,72 -5,160 -5,88 -29.5,164.5 -24.5,76.5 -78,129 Q 784,1178 682,1178 584,1178 531.5,1127.5 479,1077 453.5,1003.5 428,930 422,847 416,764 416,700 Z" />
  </g>
  <defs
     id="defs3503" />
</svg>
